<svg width="30" height="19" viewBox="0 0 30 19" fill="none" xmlns="http://www.w3.org/2000/svg">
<path d="M23.72 0.159994L29.48 3.04C27.72 4.96 26.36 7.28 25.4 10C24.44 12.72 24.2 15.4 24.68 18.04L15.8 18.88C15.32 16.16 15.36 13.64 15.92 11.32C16.56 8.92 17.56 6.8 18.92 4.96C20.36 3.04 21.96 1.44 23.72 0.159994ZM8.84 0.159994L14.6 3.04C12.84 4.96 11.48 7.28 10.52 10C9.56 12.72 9.32 15.4 9.8 18.04L0.92 18.88C0.44 16.16 0.48 13.64 1.04 11.32C1.68 8.92 2.68 6.8 4.04 4.96C5.48 3.04 7.08 1.44 8.84 0.159994Z" fill="#A9A9C8"/>
</svg>
